<svg width="30" height="31" viewBox="0 0 30 31" fill="none" xmlns="http://www.w3.org/2000/svg">
<path d="M15.0488 0.5L15.0596 4.27246L15.0723 8.54395L15.0732 8.87012L15.3721 9.00098L22.5283 12.1406C24.4928 13.0053 26.2895 13.7902 27.5996 14.3594C28.2543 14.6438 28.7882 14.8744 29.1611 15.0342C29.2877 15.0884 29.3967 15.1344 29.4854 15.1719C29.4897 15.2905 29.4958 15.4501 29.498 15.6572C29.5043 16.2364 29.501 17.1574 29.4883 18.5176V18.5186L29.4648 21.9326L22.2109 26.1494C18.8344 28.1207 16.9624 29.2087 15.9209 29.7959C15.3978 30.0909 15.0959 30.253 14.9209 30.3369C14.9195 30.3376 14.9174 30.3372 14.916 30.3379C13.7642 29.6592 7.78005 26.1494 1.96875 22.7432L1.96582 22.7412L0.5 21.8936V15.1865L7.37012 12.1787L14.5273 9.03906L14.8271 8.90723V0.5H15.0488ZM28.7549 15.1875V15.1865C28.738 15.1865 28.722 15.189 28.707 15.1904C28.6945 15.1917 28.6829 15.1917 28.6729 15.1934V15.1943C28.6365 15.2 28.6107 15.2069 28.6035 15.209C28.5789 15.216 28.5563 15.2234 28.54 15.2295C28.5068 15.242 28.4709 15.258 28.4365 15.2734C28.3662 15.3051 28.2774 15.3483 28.1787 15.3984C27.98 15.4994 27.7249 15.637 27.4639 15.7871C26.9578 16.0781 24.0105 17.7419 20.9199 19.4844L15.3145 22.6367L15.0596 22.7803V25.6582C15.0721 27.0477 15.0845 28.4793 15.1123 28.7871L15.1504 29.2881L15.21 30.085L15.9004 29.6826L29.0957 22.0049L29.3438 21.8604V18.623C29.3437 17.2477 29.3412 16.5006 29.3281 16.0996C29.3219 15.9097 29.3124 15.7596 29.291 15.6533C29.2828 15.6125 29.2583 15.4908 29.1689 15.3809C29.1134 15.3127 29.0308 15.2461 28.9209 15.2109C28.8591 15.1912 28.8021 15.1869 28.7549 15.1875ZM1.2334 15.1865C1.20317 15.1865 1.17262 15.19 1.14258 15.1953C1.14009 15.1958 1.13729 15.1958 1.13477 15.1963V15.1973C1.06069 15.2115 0.988286 15.2408 0.923828 15.2881C0.83971 15.3498 0.79164 15.4236 0.765625 15.4727C0.718288 15.562 0.701166 15.6527 0.693359 15.7002C0.675482 15.8092 0.666456 15.9636 0.660156 16.166C0.647159 16.584 0.644532 17.3239 0.644531 18.6104V21.8213L0.891602 21.9658L7.50098 25.8428C9.31938 26.9109 10.9791 27.8812 12.1875 28.584C12.7915 28.9353 13.2834 29.2198 13.626 29.417C13.7971 29.5155 13.9322 29.5928 14.0254 29.6455C14.0716 29.6716 14.1094 29.693 14.1367 29.708C14.1498 29.7151 14.1636 29.7222 14.1758 29.7285C14.1812 29.7313 14.1921 29.7367 14.2041 29.7422C14.2095 29.7447 14.2216 29.7509 14.2373 29.7568C14.2451 29.7598 14.2607 29.765 14.2803 29.7705C14.29 29.7732 14.345 29.7891 14.416 29.7891C14.6463 29.7889 14.7759 29.6413 14.8125 29.5938C14.8558 29.5375 14.8764 29.4852 14.8838 29.4658C14.9004 29.422 14.9074 29.3848 14.9092 29.375C14.9142 29.3479 14.9161 29.3243 14.917 29.3145C14.9191 29.2901 14.9209 29.262 14.9219 29.2373C14.9238 29.1853 14.9247 29.1134 14.9258 29.0273C14.928 28.8534 14.9297 28.6068 14.9297 28.3135C14.9297 27.7261 14.9253 26.9436 14.9189 26.1611C14.9126 25.3786 14.9041 24.5944 14.8945 24.0039C14.8898 23.709 14.884 23.4605 14.8789 23.2842C14.8764 23.1966 14.8739 23.1234 14.8711 23.0703C14.8698 23.0449 14.8685 23.0179 14.8662 22.9941C14.8652 22.9839 14.8634 22.9634 14.8594 22.9404C14.8576 22.9306 14.8524 22.9049 14.8428 22.874C14.8381 22.8591 14.8281 22.8277 14.8096 22.792C14.7974 22.7686 14.7493 22.6766 14.6426 22.6055L14.627 22.5957L14.6104 22.5859H14.6094L14.6084 22.585C14.607 22.5842 14.6044 22.5826 14.6016 22.5811C14.5959 22.5779 14.5872 22.5736 14.5762 22.5674C14.5538 22.5548 14.5202 22.5353 14.4766 22.5107C14.3894 22.4617 14.2608 22.3898 14.0957 22.2969C13.7644 22.1104 13.2845 21.8397 12.6934 21.5068C11.5112 20.8411 9.88093 19.9225 8.08887 18.9121C6.29639 17.9015 4.65885 16.9824 3.46094 16.3174C2.86242 15.9851 2.37176 15.7155 2.02637 15.5293C1.85422 15.4365 1.71463 15.3631 1.61523 15.3125C1.56646 15.2877 1.52221 15.2654 1.48633 15.249C1.46948 15.2413 1.44627 15.2307 1.42188 15.2217C1.41052 15.2175 1.38838 15.21 1.36133 15.2031C1.34788 15.1997 1.32479 15.194 1.2959 15.1904C1.28469 15.1891 1.26323 15.1866 1.23535 15.1865H1.2334ZM14.6309 28.8379C14.6325 28.8387 14.6337 28.8398 14.6338 28.8398C14.6338 28.8398 14.632 28.8386 14.6289 28.8369L14.6309 28.8379ZM15.6846 9.36621C15.5717 9.3544 15.4515 9.37987 15.3457 9.4502C15.233 9.52511 15.1801 9.62324 15.1592 9.66699C15.1167 9.75595 15.1015 9.84762 15.0947 9.89453C15.0782 10.0083 15.0698 10.1726 15.0635 10.3887C15.0505 10.8314 15.0469 11.5903 15.0469 12.8398V17.0596L17.2461 14.8604L18.2471 13.8682L18.29 13.9121L18.3418 13.9658L16.668 15.6514L14.9883 17.3301L13.334 15.665C12.7822 15.1069 12.2813 14.5965 11.917 14.2227C11.8095 14.1123 11.714 14.0136 11.6328 13.9297C11.6525 13.9095 11.6723 13.8873 11.6934 13.8662L11.7334 13.8262L12.6768 14.7695L13.9736 16.0654L14.8271 16.9199V9.85156H14.3271L14.1299 9.39258C14.0375 9.43217 11.1219 10.7181 8.22949 11.9961C6.78196 12.6356 5.33808 13.2739 4.25293 13.7549C3.71039 13.9954 3.25678 14.1965 2.9375 14.3389C2.77797 14.41 2.65131 14.4672 2.56348 14.5068C2.52003 14.5264 2.485 14.5422 2.45996 14.5537C2.44768 14.5594 2.43541 14.5647 2.42578 14.5693C2.42137 14.5714 2.41503 14.5747 2.4082 14.5781C2.40489 14.5798 2.39819 14.5837 2.39062 14.5879C2.38707 14.5899 2.37918 14.5936 2.37402 14.5967L2.37109 14.5977H2.37305C2.36522 14.6025 2.34396 14.6166 2.33105 14.626L2.33203 14.6279C2.22366 14.7095 2.14214 14.8368 2.13086 14.9922C2.12101 15.1294 2.16985 15.2307 2.18945 15.2676C2.23075 15.3451 2.28415 15.395 2.2959 15.4062C2.33417 15.4429 2.37737 15.4745 2.40625 15.4951C2.47198 15.542 2.56607 15.6022 2.68164 15.6738C2.91651 15.8194 3.27756 16.033 3.77148 16.3193C4.76104 16.893 6.30117 17.7686 8.47461 18.9951L8.47656 18.9961C10.1803 19.9497 11.7384 20.8183 12.8789 21.4482C13.4489 21.763 13.9162 22.0188 14.2451 22.1963C14.409 22.2848 14.5409 22.3548 14.6348 22.4033C14.6811 22.4273 14.7216 22.4485 14.7539 22.4639C14.7693 22.4712 14.7891 22.4802 14.8086 22.4883C14.8178 22.4921 14.8341 22.4986 14.8535 22.5049C14.8633 22.5081 14.8794 22.513 14.8994 22.5176C14.9145 22.521 14.9575 22.5302 15.0127 22.5303C15.0728 22.5303 15.1199 22.519 15.1338 22.5156C15.1539 22.5107 15.1703 22.5052 15.1797 22.502C15.1987 22.4955 15.2146 22.4892 15.2236 22.4854C15.2429 22.4772 15.2622 22.4678 15.2783 22.46C15.312 22.4436 15.3555 22.4215 15.4053 22.3955C15.5062 22.3427 15.6482 22.2662 15.8232 22.1709C16.1741 21.9799 16.6676 21.7078 17.2539 21.3818C18.4269 20.7297 19.9776 19.8602 21.5225 18.9893C23.0675 18.1182 24.6079 17.2455 25.7588 16.5869C26.3339 16.2578 26.813 15.9811 27.1475 15.7852C27.3142 15.6874 27.4482 15.6081 27.54 15.5518C27.5848 15.5243 27.6248 15.4989 27.6553 15.4785C27.6685 15.4696 27.6909 15.454 27.7129 15.4365C27.7207 15.4303 27.7494 15.4075 27.7793 15.374C27.7904 15.3616 27.8338 15.3137 27.8662 15.2393C27.8934 15.1767 27.9837 14.9075 27.7607 14.6846C27.7332 14.6591 27.6914 14.6263 27.6777 14.6172C27.67 14.6124 27.6565 14.6055 27.6514 14.6025C27.642 14.5973 27.6341 14.5924 27.6309 14.5908C27.6236 14.5871 27.6164 14.584 27.6123 14.582C27.6031 14.5776 27.5918 14.5727 27.5801 14.5674C27.5558 14.5563 27.5215 14.5407 27.4785 14.5215C27.3921 14.4828 27.2668 14.4266 27.1084 14.3564C26.7911 14.216 26.3388 14.0169 25.7969 13.7783C24.7127 13.3009 23.2667 12.6653 21.8135 12.0273C18.9093 10.7523 15.9694 9.46375 15.833 9.40527L15.8135 9.39648L15.7939 9.39062L15.6846 9.36621ZM27.1836 15.4854C27.1828 15.485 27.1809 15.4845 27.1787 15.4834C27.1783 15.4832 27.1777 15.4819 27.1768 15.4814C27.1802 15.483 27.1823 15.4847 27.1836 15.4854ZM29.9502 15.3223C29.9096 15.3223 29.8723 15.3165 29.8379 15.3086C29.8565 15.3129 29.8993 15.3223 29.9502 15.3223ZM29.7949 15.2979C29.7985 15.299 29.8043 15.3007 29.8115 15.3027C29.8086 15.3019 29.8056 15.3017 29.8027 15.3008L29.7949 15.2979Z" fill="#62560E" stroke="black"/>
</svg>
