<svg viewBox="0 0 30 30" fill="none" width="32" height="32" xmlns="http://www.w3.org/2000/svg" xmlns:xlink="http://www.w3.org/1999/xlink">
    <style>
        :root, .palette0 {color: currentColor;
            --color0: #62560e;
        }
    </style>
    <path fill="var(--color0, #62560e)" clip-rule="evenodd" d="M30 15c0 8.2845-6.7155 15-15 15S0 23.2845 0 15 6.7155 0 15 0 30 6.7155 30 15zM9.1665 20.8335c-0.1406-0.1406-0.2196-0.3314-0.2196-0.5303 0-0.1988 0.079-0.3896 0.2196-0.5302L13.9395 15l-4.773-4.773C9.0299 10.0855 8.9543 9.8961 8.956 9.6995c17e-4-0.1967 0.0806-0.3848 0.2196-0.5239 0.1391-0.139 0.3272-0.2179 0.5238-0.2196 0.1967-17e-4 0.3861 0.0739 0.5276 0.2105L15 13.9395l4.773-4.773c0.1415-0.1366 0.3309-0.2122 0.5276-0.2105 0.1966 17e-4 0.3847 0.0806 0.5238 0.2196 0.139 0.1391 0.2179 0.3272 0.2196 0.5239 17e-4 0.1966-0.0739 0.386-0.2105 0.5275L16.0605 15l4.773 4.773c0.1366 0.1415 0.2122 0.3309 0.2105 0.5276-17e-4 0.1966-0.0806 0.3847-0.2196 0.5238-0.1391 0.139-0.3272 0.2179-0.5238 0.2196-0.1967 17e-4-0.3861-0.0739-0.5276-0.2105L15 16.0605l-4.773 4.773c-0.1406 0.1406-0.3314 0.2196-0.5303 0.2196-0.1988 0-0.3895-0.079-0.5302-0.2196z" fill-rule="evenodd" />
</svg>
